<?xml version="1.0" encoding="UTF-8" standalone="no"?>
<!-- Created with Inkscape (http://www.inkscape.org/) -->

<svg
   width="49.000645mm"
   height="17.820669mm"
   viewBox="0 0 49.000645 17.820669"
   version="1.1"
   id="svg1"
   xml:space="preserve"
   xmlns="http://www.w3.org/2000/svg"
   xmlns:svg="http://www.w3.org/2000/svg"><defs
     id="defs1" /><g
     id="layer1"
     transform="translate(-129.95029,-137.56801)"><g
       id="g140"
       transform="translate(-10.278877,3.9534142)"><path
         id="path2-0-7-86-8-7"
         d="m 164.44183,146.42179 c 0,-0.62839 -0.26459,-0.87643 -0.8847,-0.87643 -0.60772,0 -0.8847,0.41756 -0.97152,0.59118 h -0.004 v -1.66605 c 0,-0.19429 -0.0455,-0.28938 -0.29352,-0.28938 h -0.22324 c -0.21911,0 -0.29352,0.0662 -0.29352,0.28938 v 3.62976 c 0,0.2191 0.0661,0.29353 0.29352,0.29353 h 0.23978 c 0.23151,0 0.29352,-0.0785 0.29352,-0.29353 v -1.33945 c 0,-0.52917 0.3514,-0.77721 0.66973,-0.77721 0.28939,0 0.3514,0.14054 0.3514,0.45061 v 1.66605 c 0,0.19431 0.0413,0.29353 0.28939,0.29353 h 0.24391 c 0.23151,0 0.28939,-0.0785 0.28939,-0.29353 z m 2.99,0.67387 c 0.14056,0 0.29352,-0.008 0.29352,-0.28112 0,-0.78134 -0.3638,-1.30638 -1.26918,-1.30638 -0.97151,0 -1.45107,0.5457 -1.45107,1.47174 0,0.99632 0.57464,1.48003 1.52962,1.48003 0.23151,0 0.57464,-0.029 0.97566,-0.23151 0.13642,-0.0661 0.17776,-0.0827 0.17776,-0.15711 0,-0.0413 -0.0207,-0.2191 -0.0248,-0.26459 -0.0248,-0.19015 -0.0289,-0.19843 -0.0868,-0.19843 -0.0207,0 -0.0331,0 -0.10335,0.062 -0.35553,0.31007 -0.71934,0.3514 -0.91364,0.3514 -0.68626,0 -0.76068,-0.53742 -0.77721,-0.92604 z m -1.64538,-0.32245 c 0.0165,-0.37209 0.14056,-0.82682 0.66972,-0.82682 0.4837,0 0.57465,0.35139 0.59532,0.82682 z m 7.02696,-0.35142 c 0,-0.62839 -0.26872,-0.87643 -0.8847,-0.87643 -0.43408,0 -0.76894,0.20259 -0.98392,0.59946 -0.0992,-0.58293 -0.61598,-0.59946 -0.8723,-0.59946 -0.11162,0 -0.36793,0 -0.64078,0.20259 -0.19017,0.13642 -0.31006,0.33073 -0.35141,0.42166 h -0.008 v -0.30178 c 0,-0.19431 -0.0413,-0.29353 -0.28939,-0.29353 h -0.2067 c -0.21911,0 -0.29353,0.0703 -0.29353,0.29353 v 2.23242 c 0,0.2191 0.0661,0.29353 0.29353,0.29353 h 0.23977 c 0.23151,0 0.29352,-0.0785 0.29352,-0.29353 v -1.33945 c 0,-0.5457 0.37208,-0.77721 0.66973,-0.77721 0.28939,0 0.35554,0.12816 0.35554,0.45061 v 1.66605 c 0,0.2191 0.0661,0.29353 0.29352,0.29353 h 0.23978 c 0.23151,0 0.29352,-0.0785 0.29352,-0.29353 v -1.33945 c 0,-0.5457 0.37207,-0.77721 0.66973,-0.77721 0.28938,0 0.35553,0.12816 0.35553,0.45061 v 1.66605 c 0,0.2191 0.0661,0.29353 0.29352,0.29353 h 0.23978 c 0.23151,0 0.29352,-0.0785 0.29352,-0.29353 z m 6.08955,0.60359 c 0,-0.99218 -0.48783,-1.51722 -1.47588,-1.51722 -1.01286,0 -1.48001,0.54157 -1.48001,1.51722 0,0.99219 0.5209,1.43455 1.47588,1.43455 0.95084,0 1.48001,-0.43823 1.48001,-1.43455 z m -1.47588,0.96324 c -0.65732,0 -0.65732,-0.54983 -0.65732,-1.03351 0,-0.46718 0,-1.00872 0.65319,-1.00872 0.65319,0 0.65319,0.53329 0.65319,1.00872 0,0.47956 0,1.03351 -0.64906,1.03351 z m 2.66651,-0.99218 c 0,-0.57465 0.47955,-0.81442 0.86403,-0.83923 0.10748,-0.004 0.11988,-0.004 0.11988,-0.16122 v -0.28527 c 0,-0.12401 0,-0.16536 -0.10748,-0.16536 -0.17364,0 -0.61598,0.062 -0.90124,0.71522 h -0.004 v -0.39275 c 0,-0.19431 -0.0455,-0.29353 -0.29352,-0.29353 h -0.1943 c -0.21911,0 -0.28939,0.0703 -0.28939,0.29353 v 2.23242 c 0,0.2191 0.0661,0.29353 0.28939,0.29353 h 0.22324 c 0.23151,0 0.29352,-0.0785 0.29352,-0.29353 z m 3.85609,1.09553 c 0,-0.0703 -0.0248,-0.34726 -0.0331,-0.42579 0,-0.0206 -0.0124,-0.0786 -0.0744,-0.0786 -0.0248,0 -0.0372,0 -0.0992,0.0579 -0.10336,0.091 -0.38861,0.34313 -0.88471,0.34313 -0.63252,0 -0.63252,-0.61597 -0.63252,-1.00459 0,-0.49194 0.0289,-1.00044 0.64906,-1.00044 0.39688,0 0.55811,0.0951 0.77721,0.27699 0.0744,0.0703 0.0868,0.0703 0.11162,0.0703 0.0579,0 0.0703,-0.0579 0.0785,-0.0827 0.0124,-0.0455 0.0744,-0.38862 0.0744,-0.41754 0,-0.0538 -0.0455,-0.0786 -0.14883,-0.12816 -0.28939,-0.1323 -0.47129,-0.19431 -0.8971,-0.19431 -0.90537,0 -1.47175,0.42582 -1.47175,1.48828 0,1.00872 0.52503,1.46349 1.44281,1.46349 0.16123,0 0.52503,-0.004 0.93431,-0.21085 0.1695,-0.091 0.17363,-0.0992 0.17363,-0.15711 z m 3.22978,-1.67018 c 0,-0.62839 -0.26459,-0.87643 -0.8847,-0.87643 -0.60772,0 -0.8847,0.41756 -0.97152,0.59118 h -0.004 v -1.66605 c 0,-0.19429 -0.0455,-0.28938 -0.29352,-0.28938 h -0.22324 c -0.21911,0 -0.29352,0.0662 -0.29352,0.28938 v 3.62976 c 0,0.2191 0.0661,0.29353 0.29352,0.29353 h 0.23978 c 0.23151,0 0.29352,-0.0785 0.29352,-0.29353 v -1.33945 c 0,-0.52917 0.3514,-0.77721 0.66973,-0.77721 0.28939,0 0.3514,0.14054 0.3514,0.45061 v 1.66605 c 0,0.19431 0.0413,0.29353 0.28938,0.29353 h 0.24392 c 0.23151,0 0.28939,-0.0785 0.28939,-0.29353 z m 0,0"
         style="fill:none;fill-opacity:1;fill-rule:nonzero;stroke:#9dfdf1;stroke-width:0.353;stroke-dasharray:none;stroke-opacity:1"
         aria-label="hemorch" /><path
         id="path2-0-7-86-8"
         d="m 164.44183,146.42179 c 0,-0.62839 -0.26459,-0.87643 -0.8847,-0.87643 -0.60772,0 -0.8847,0.41756 -0.97152,0.59118 h -0.004 v -1.66605 c 0,-0.19429 -0.0455,-0.28938 -0.29352,-0.28938 h -0.22324 c -0.21911,0 -0.29352,0.0662 -0.29352,0.28938 v 3.62976 c 0,0.2191 0.0661,0.29353 0.29352,0.29353 h 0.23978 c 0.23151,0 0.29352,-0.0785 0.29352,-0.29353 v -1.33945 c 0,-0.52917 0.3514,-0.77721 0.66973,-0.77721 0.28939,0 0.3514,0.14054 0.3514,0.45061 v 1.66605 c 0,0.19431 0.0413,0.29353 0.28939,0.29353 h 0.24391 c 0.23151,0 0.28939,-0.0785 0.28939,-0.29353 z m 2.99,0.67387 c 0.14056,0 0.29352,-0.008 0.29352,-0.28112 0,-0.78134 -0.3638,-1.30638 -1.26918,-1.30638 -0.97151,0 -1.45107,0.5457 -1.45107,1.47174 0,0.99632 0.57464,1.48003 1.52962,1.48003 0.23151,0 0.57464,-0.029 0.97566,-0.23151 0.13642,-0.0661 0.17776,-0.0827 0.17776,-0.15711 0,-0.0413 -0.0207,-0.2191 -0.0248,-0.26459 -0.0248,-0.19015 -0.0289,-0.19843 -0.0868,-0.19843 -0.0207,0 -0.0331,0 -0.10335,0.062 -0.35553,0.31007 -0.71934,0.3514 -0.91364,0.3514 -0.68626,0 -0.76068,-0.53742 -0.77721,-0.92604 z m -1.64538,-0.32245 c 0.0165,-0.37209 0.14056,-0.82682 0.66972,-0.82682 0.4837,0 0.57465,0.35139 0.59532,0.82682 z m 7.02696,-0.35142 c 0,-0.62839 -0.26872,-0.87643 -0.8847,-0.87643 -0.43408,0 -0.76894,0.20259 -0.98392,0.59946 -0.0992,-0.58293 -0.61598,-0.59946 -0.8723,-0.59946 -0.11162,0 -0.36793,0 -0.64078,0.20259 -0.19017,0.13642 -0.31006,0.33073 -0.35141,0.42166 h -0.008 v -0.30178 c 0,-0.19431 -0.0413,-0.29353 -0.28939,-0.29353 h -0.2067 c -0.21911,0 -0.29353,0.0703 -0.29353,0.29353 v 2.23242 c 0,0.2191 0.0661,0.29353 0.29353,0.29353 h 0.23977 c 0.23151,0 0.29352,-0.0785 0.29352,-0.29353 v -1.33945 c 0,-0.5457 0.37208,-0.77721 0.66973,-0.77721 0.28939,0 0.35554,0.12816 0.35554,0.45061 v 1.66605 c 0,0.2191 0.0661,0.29353 0.29352,0.29353 h 0.23978 c 0.23151,0 0.29352,-0.0785 0.29352,-0.29353 v -1.33945 c 0,-0.5457 0.37207,-0.77721 0.66973,-0.77721 0.28938,0 0.35553,0.12816 0.35553,0.45061 v 1.66605 c 0,0.2191 0.0661,0.29353 0.29352,0.29353 h 0.23978 c 0.23151,0 0.29352,-0.0785 0.29352,-0.29353 z m 6.08955,0.60359 c 0,-0.99218 -0.48783,-1.51722 -1.47588,-1.51722 -1.01286,0 -1.48001,0.54157 -1.48001,1.51722 0,0.99219 0.5209,1.43455 1.47588,1.43455 0.95084,0 1.48001,-0.43823 1.48001,-1.43455 z m -1.47588,0.96324 c -0.65732,0 -0.65732,-0.54983 -0.65732,-1.03351 0,-0.46718 0,-1.00872 0.65319,-1.00872 0.65319,0 0.65319,0.53329 0.65319,1.00872 0,0.47956 0,1.03351 -0.64906,1.03351 z m 2.66651,-0.99218 c 0,-0.57465 0.47955,-0.81442 0.86403,-0.83923 0.10748,-0.004 0.11988,-0.004 0.11988,-0.16122 v -0.28527 c 0,-0.12401 0,-0.16536 -0.10748,-0.16536 -0.17364,0 -0.61598,0.062 -0.90124,0.71522 h -0.004 v -0.39275 c 0,-0.19431 -0.0455,-0.29353 -0.29352,-0.29353 h -0.1943 c -0.21911,0 -0.28939,0.0703 -0.28939,0.29353 v 2.23242 c 0,0.2191 0.0661,0.29353 0.28939,0.29353 h 0.22324 c 0.23151,0 0.29352,-0.0785 0.29352,-0.29353 z m 3.85609,1.09553 c 0,-0.0703 -0.0248,-0.34726 -0.0331,-0.42579 0,-0.0206 -0.0124,-0.0786 -0.0744,-0.0786 -0.0248,0 -0.0372,0 -0.0992,0.0579 -0.10336,0.091 -0.38861,0.34313 -0.88471,0.34313 -0.63252,0 -0.63252,-0.61597 -0.63252,-1.00459 0,-0.49194 0.0289,-1.00044 0.64906,-1.00044 0.39688,0 0.55811,0.0951 0.77721,0.27699 0.0744,0.0703 0.0868,0.0703 0.11162,0.0703 0.0579,0 0.0703,-0.0579 0.0785,-0.0827 0.0124,-0.0455 0.0744,-0.38862 0.0744,-0.41754 0,-0.0538 -0.0455,-0.0786 -0.14883,-0.12816 -0.28939,-0.1323 -0.47129,-0.19431 -0.8971,-0.19431 -0.90537,0 -1.47175,0.42582 -1.47175,1.48828 0,1.00872 0.52503,1.46349 1.44281,1.46349 0.16123,0 0.52503,-0.004 0.93431,-0.21085 0.1695,-0.091 0.17363,-0.0992 0.17363,-0.15711 z m 3.22978,-1.67018 c 0,-0.62839 -0.26459,-0.87643 -0.8847,-0.87643 -0.60772,0 -0.8847,0.41756 -0.97152,0.59118 h -0.004 v -1.66605 c 0,-0.19429 -0.0455,-0.28938 -0.29352,-0.28938 h -0.22324 c -0.21911,0 -0.29352,0.0662 -0.29352,0.28938 v 3.62976 c 0,0.2191 0.0661,0.29353 0.29352,0.29353 h 0.23978 c 0.23151,0 0.29352,-0.0785 0.29352,-0.29353 v -1.33945 c 0,-0.52917 0.3514,-0.77721 0.66973,-0.77721 0.28939,0 0.3514,0.14054 0.3514,0.45061 v 1.66605 c 0,0.19431 0.0413,0.29353 0.28938,0.29353 h 0.24392 c 0.23151,0 0.28939,-0.0785 0.28939,-0.29353 z m 0,0"
         style="fill:#39f9e3;fill-opacity:1;fill-rule:nonzero;stroke:none;stroke-width:0.352777"
         aria-label="hemorch" /><path
         id="path3-9-5-8-3"
         d="m 161.02085,147.03779 c 0,-0.0827 -0.0744,-0.12403 -0.11576,-0.12403 -0.25218,0 -0.5581,0.68212 -2.04639,0.68212 -1.85621,0 -2.38125,-1.13686 -2.38125,-2.71611 0,-1.57096 0.57051,-2.71198 2.29857,-2.71198 0.93845,0 1.43454,0.36793 1.71979,0.6036 0.062,0.0496 0.0909,0.0951 0.16537,0.0951 0.0455,0 0.0951,-0.0537 0.10749,-0.0951 l 0.21084,-1.16997 c 0.008,-0.0455 0,-0.0868 -0.0868,-0.11988 -0.62012,-0.23151 -1.26504,-0.37621 -2.0836,-0.37621 -2.57555,0 -3.8902,1.25264 -3.8902,3.76203 0,2.58384 1.33532,3.78685 3.89847,3.78685 0.89711,0 1.45521,-0.12814 2.22416,-0.60357 0.0868,-0.0537 0.062,-0.12403 0.062,-0.12403 z m 0,0"
         style="fill:#39f9e3;fill-opacity:1;fill-rule:nonzero;stroke:none;stroke-width:0.352777"
         aria-label="C" /><path
         id="path4-0-9-6-6"
         d="m 173.70121,142.35797 v 5.68439 c 0,0.37621 0.11576,0.50438 0.5085,0.50438 h 0.53743 c 0.40101,0 0.50436,-0.13642 0.50436,-0.50438 v -5.68439 c 0.46302,0 1.64538,0.0331 2.1084,0.0331 0.29353,0 0.54984,0 0.54984,-0.50851 v -0.0827 c 0,-0.33901 -0.0744,-0.50437 -0.5085,-0.50437 h -5.86217 c -0.3762,0 -0.50436,0.11575 -0.50436,0.50437 v 0.0827 c 0,0.50851 0.25218,0.50851 0.54984,0.50851 z m 0,0"
         style="fill:#8ff928;fill-opacity:1;fill-rule:nonzero;stroke:none;stroke-width:0.352777"
         aria-label="T" /><path
         id="path5-1-2-7-6"
         style="fill:none;stroke:#8ff928;stroke-width:0.499996;stroke-linecap:butt;stroke-linejoin:miter;stroke-miterlimit:10;stroke-dasharray:none;stroke-opacity:1"
         d="m 146.4796,136.18506 h -4.24311 c -0.97056,0 -1.75732,0.78676 -1.75732,1.75731 v 0 10.48546 c 0,0.97055 0.78676,1.75734 1.75732,1.75734 h 0.24287" /><path
         id="path110-4-3"
         style="fill:none;stroke:#8ff928;stroke-width:0.499996;stroke-linecap:butt;stroke-linejoin:miter;stroke-miterlimit:10;stroke-dasharray:none;stroke-opacity:1"
         d="m 154.47956,150.18517 h 32.74294 c 0.97055,0 1.75732,-0.78679 1.75732,-1.75734 v -10.48546 c 0,-0.97055 -0.78677,-1.75731 -1.75732,-1.75731 h -28.74322" /><path
         id="path8-2-9-0-7"
         d="m 146.97919,141.1851 -3.08637,7.71591 c -0.50458,1.26156 0.18785,2.28423 1.54663,2.28423 h 6.07969 c 1.35878,0 2.0512,-1.02267 1.5466,-2.2842 l -3.08648,-7.71594"
         style="fill:none;stroke:#39f9e3;stroke-width:0.499996;stroke-linecap:butt;stroke-linejoin:miter;stroke-miterlimit:10;stroke-dasharray:none;stroke-opacity:1" /><path
         id="path9-5-6-0-3"
         d="m 146.97919,139.93511 v 1.24999 l -0.0999,0.1"
         style="fill:none;stroke:#39f9e3;stroke-width:0.499996;stroke-linecap:butt;stroke-linejoin:miter;stroke-miterlimit:10;stroke-dasharray:none;stroke-opacity:1" /><path
         id="path10-0-9-87-3"
         d="m 149.97926,139.93511 v 1.24999 l 0.10009,0.1"
         style="fill:none;stroke:#39f9e3;stroke-width:0.499996;stroke-linecap:butt;stroke-linejoin:miter;stroke-miterlimit:10;stroke-dasharray:none;stroke-opacity:1" /><path
         id="path11-2-9-6-8"
         d="m 146.97919,140.18503 h -0.64846 c -0.19411,0 -0.35146,-0.15735 -0.35146,-0.35145 v -1.29706 c 0,-0.19413 0.15735,-0.35147 0.35146,-0.35147 h 4.29714 c 0.19411,0 0.35146,0.15734 0.35146,0.35147 v 1.29706 c 0,0.1941 -0.15735,0.35145 -0.35146,0.35145 h -0.64861"
         style="fill:none;stroke:#39f9e3;stroke-width:0.499996;stroke-linecap:butt;stroke-linejoin:miter;stroke-miterlimit:10;stroke-dasharray:none;stroke-opacity:1" /><path
         id="path12-8-8-4-4"
         d="m 150.97933,134.68494 c 0,-0.55232 -0.44774,-1.00007 -1.00007,-1.00007 -0.55233,0 -1.00008,0.44775 -1.00008,1.00007 0,0.55233 0.44775,1.00008 1.00008,1.00008 0.55233,0 1.00007,-0.44775 1.00007,-1.00008 z"
         style="fill:#8ff928;fill-opacity:1;fill-rule:nonzero;stroke:#8ff928;stroke-width:0.140582;stroke-linecap:butt;stroke-linejoin:miter;stroke-miterlimit:10;stroke-dasharray:none;stroke-opacity:1" /><path
         id="path13-3-0-6-6"
         d="m 154.97947,135.68502 c 0,-0.55233 -0.44775,-1.00008 -1.00007,-1.00008 -0.55233,0 -1.00008,0.44775 -1.00008,1.00008 0,0.55232 0.44775,1.00007 1.00008,1.00007 0.55232,0 1.00007,-0.44775 1.00007,-1.00007 z"
         style="fill:#8ff928;fill-opacity:1;fill-rule:nonzero;stroke:#8ff928;stroke-width:0.140582;stroke-linecap:butt;stroke-linejoin:miter;stroke-miterlimit:10;stroke-dasharray:none;stroke-opacity:1" /><path
         id="path14-9-3-37-3"
         d="m 148.97933,136.68494 c 0,-0.55233 -0.44774,-1.00007 -1.00007,-1.00007 -0.55233,0 -1.00007,0.44774 -1.00007,1.00007 0,0.55232 0.44774,1.00007 1.00007,1.00007 0.55233,0 1.00007,-0.44775 1.00007,-1.00007 z"
         style="fill:#28f97b;fill-opacity:1;fill-rule:nonzero;stroke:#28f97b;stroke-width:0.140582;stroke-linecap:butt;stroke-linejoin:miter;stroke-miterlimit:10;stroke-dasharray:none;stroke-opacity:1" /><path
         id="path15-9-6-8-0"
         d="m 156.47943,138.18505 c 0,-0.55232 -0.44775,-1.00007 -1.00007,-1.00007 -0.55233,0 -1.00007,0.44775 -1.00007,1.00007 0,0.55234 0.44774,1.00007 1.00007,1.00007 0.55232,0 1.00007,-0.44773 1.00007,-1.00007 z"
         style="fill:#28f97b;fill-opacity:1;fill-rule:nonzero;stroke:#28f97b;stroke-width:0.140582;stroke-linecap:butt;stroke-linejoin:miter;stroke-miterlimit:10;stroke-dasharray:none;stroke-opacity:1" /><path
         id="path16-3-3-4-1"
         d="m 157.97939,136.18506 c 0,-0.55233 -0.44775,-1.00008 -1.00008,-1.00008 -0.55233,0 -1.00007,0.44775 -1.00007,1.00008 0,0.55232 0.44774,1.00006 1.00007,1.00006 0.55233,0 1.00008,-0.44774 1.00008,-1.00006 z"
         style="fill:#28f97b;fill-opacity:1;fill-rule:nonzero;stroke:#28f97b;stroke-width:0.140582;stroke-linecap:butt;stroke-linejoin:miter;stroke-miterlimit:10;stroke-dasharray:none;stroke-opacity:1" /><path
         id="path17-0-7-6-6"
         d="m 159.97953,138.68508 c 0,-0.55232 -0.44774,-1.00007 -1.00007,-1.00007 -0.55233,0 -1.00007,0.44775 -1.00007,1.00007 0,0.55235 0.44774,1.00007 1.00007,1.00007 0.55233,0 1.00007,-0.44772 1.00007,-1.00007 z"
         style="fill:#eef928;fill-opacity:1;fill-rule:nonzero;stroke:#eef928;stroke-width:0.140582;stroke-linecap:butt;stroke-linejoin:miter;stroke-miterlimit:10;stroke-dasharray:none;stroke-opacity:1" /><path
         id="path18-1-5-8-5"
         d="m 163.97952,142.68508 c 0,-0.55232 -0.44775,-1.00007 -1.00007,-1.00007 -0.55233,0 -1.00007,0.44775 -1.00007,1.00007 0,0.55232 0.44774,1.00007 1.00007,1.00007 0.55232,0 1.00007,-0.44775 1.00007,-1.00007 z"
         style="fill:#eef928;fill-opacity:1;fill-rule:nonzero;stroke:#eef928;stroke-width:0.140582;stroke-linecap:butt;stroke-linejoin:miter;stroke-miterlimit:10;stroke-dasharray:none;stroke-opacity:1" /><path
         id="path19-5-8-2-9"
         d="m 149.81561,134.52129 c 0.22646,-0.22647 0.3266,-0.49351 0.22366,-0.59645 -0.10293,-0.10294 -0.36997,-0.003 -0.59644,0.22368 -0.22647,0.22646 -0.32661,0.49351 -0.22367,0.59644 0.10293,0.10294 0.36997,0.003 0.59645,-0.22367 z"
         style="fill:#ffffff;fill-opacity:0.3;fill-rule:nonzero;stroke:none;stroke-width:0.352777" /><path
         id="path20-2-7-3-5"
         d="m 153.81575,135.52137 c 0.22647,-0.22647 0.32661,-0.49352 0.22367,-0.59645 -0.10294,-0.10294 -0.36998,-0.003 -0.59645,0.22367 -0.22647,0.22647 -0.32661,0.49352 -0.22367,0.59645 0.10293,0.10294 0.36998,0.003 0.59645,-0.22367 z"
         style="fill:#ffffff;fill-opacity:0.3;fill-rule:nonzero;stroke:none;stroke-width:0.352777" /><path
         id="path21-7-7-0-8"
         d="m 147.81561,136.52144 c 0.22647,-0.22647 0.32661,-0.49351 0.22367,-0.59645 -0.10294,-0.10293 -0.36997,-0.003 -0.59645,0.22367 -0.22647,0.22647 -0.3266,0.49351 -0.22367,0.59645 0.10294,0.10293 0.36998,0.003 0.59645,-0.22367 z"
         style="fill:#ffffff;fill-opacity:0.3;fill-rule:nonzero;stroke:none;stroke-width:0.352777" /><path
         id="path22-3-1-44-5"
         d="m 155.3157,138.0214 c 0.22647,-0.22648 0.3266,-0.49353 0.22367,-0.59645 -0.10293,-0.10294 -0.36997,-0.003 -0.59645,0.22368 -0.22647,0.22646 -0.3266,0.4935 -0.22367,0.59645 0.10294,0.10292 0.36998,0.003 0.59645,-0.22368 z"
         style="fill:#ffffff;fill-opacity:0.3;fill-rule:nonzero;stroke:none;stroke-width:0.352777" /><path
         id="path23-9-6-3-9"
         d="m 156.81581,136.0214 c 0.22648,-0.22647 0.32661,-0.49351 0.22367,-0.59645 -0.10293,-0.10293 -0.36997,-0.003 -0.59644,0.22368 -0.22648,0.22647 -0.32661,0.49351 -0.22367,0.59644 0.10293,0.10294 0.36997,0.003 0.59644,-0.22367 z"
         style="fill:#ffffff;fill-opacity:0.3;fill-rule:nonzero;stroke:none;stroke-width:0.352777" /><path
         id="path24-6-1-3-1"
         d="m 158.8158,138.52144 c 0.22647,-0.22649 0.32661,-0.49353 0.22368,-0.59645 -0.10294,-0.10295 -0.36998,-0.003 -0.59645,0.22368 -0.22647,0.22645 -0.32661,0.4935 -0.22367,0.59645 0.10294,0.10292 0.36998,0.003 0.59644,-0.22368 z"
         style="fill:#ffffff;fill-opacity:0.3;fill-rule:nonzero;stroke:none;stroke-width:0.352777" /><path
         id="path25-4-3-2-4"
         d="m 162.81579,142.52143 c 0.22647,-0.22648 0.32661,-0.49352 0.22367,-0.59645 -0.10293,-0.10295 -0.36997,-0.003 -0.59644,0.22366 -0.22648,0.22648 -0.32661,0.49352 -0.22368,0.59645 0.10294,0.10295 0.36999,0.003 0.59645,-0.22366 z"
         style="fill:#ffffff;fill-opacity:0.3;fill-rule:nonzero;stroke:none;stroke-width:0.352777" /><path
         id="path26-9-4-97-0"
         d="m 148.4793,150.18517 h -3.29706 c -0.38822,0 -0.59244,-0.29467 -0.45615,-0.65815 l 2.50636,-6.68385 c 0.13629,-0.36349 0.56148,-0.65813 0.94971,-0.65813 h 0.59413 c 0.38823,0 0.81343,0.29464 0.94973,0.65813 l 2.50647,6.68385 c 0.1363,0.36348 -0.0679,0.65815 -0.45613,0.65815 h -3.29706"
         style="fill:#28f97b;fill-opacity:1;fill-rule:nonzero;stroke:none;stroke-width:0.352777" /><path
         id="path27-2-3-9-6"
         d="m 145.07929,148.5851 2.15316,-5.74193 c 0.13629,-0.36349 0.56148,-0.65813 0.94971,-0.65813 h 0.59413 c 0.38823,0 0.81343,0.29464 0.94974,0.65813 l 2.15327,5.74193"
         style="fill:#28f936;fill-opacity:1;fill-rule:nonzero;stroke:none;stroke-width:0.352777" /><path
         id="path28-3-2-7-2"
         d="m 145.67927,146.98503 1.55318,-4.14186 c 0.13629,-0.36349 0.56148,-0.65813 0.94971,-0.65813 h 0.59413 c 0.38823,0 0.81343,0.29464 0.94974,0.65813 l 1.55329,4.14186"
         style="fill:#8ff928;fill-opacity:1;fill-rule:nonzero;stroke:none;stroke-width:0.352777" /><path
         id="path29-5-2-1-3"
         d="m 146.27942,145.38515 0.95306,-2.54196 c 0.13627,-0.36348 0.56145,-0.65815 0.94968,-0.65815 h 0.59413 c 0.38823,0 0.81341,0.29467 0.94971,0.65815 l 0.95318,2.54196"
         style="fill:#c7f928;fill-opacity:1;fill-rule:nonzero;stroke:none;stroke-width:0.352777" /><path
         id="path30-9-1-3-3"
         d="m 146.87939,143.78508 0.35312,-0.94189 c 0.13626,-0.36348 0.56142,-0.65815 0.94965,-0.65815 h 0.59413 c 0.38823,0 0.81341,0.29467 0.9497,0.65815 l 0.35321,0.94189"
         style="fill:#eef928;fill-opacity:1;fill-rule:nonzero;stroke:none;stroke-width:0.352777" /><path
         id="path31-7-1-3-5"
         d="m 147.77459,146.36549 c 0.6639,-1.82407 0.98029,-3.38344 0.70669,-3.48301 -0.27361,-0.0996 -1.0336,1.29834 -1.69751,3.12238 -0.66391,1.82404 -0.9803,3.38344 -0.70669,3.483 0.27361,0.0996 1.03359,-1.29834 1.69751,-3.12237 z"
         style="fill:#ffffff;fill-opacity:0.3;fill-rule:nonzero;stroke:none;stroke-width:0.352777" /><path
         id="path4-0-9-6-6-3"
         d="m 173.70121,142.35797 v 5.68439 c 0,0.37621 0.11576,0.50438 0.5085,0.50438 h 0.53743 c 0.40101,0 0.50436,-0.13642 0.50436,-0.50438 v -5.68439 c 0.46302,0 1.64538,0.0331 2.1084,0.0331 0.29353,0 0.54984,0 0.54984,-0.50851 v -0.0827 c 0,-0.33901 -0.0744,-0.50437 -0.5085,-0.50437 h -5.86217 c -0.3762,0 -0.50436,0.11575 -0.50436,0.50437 v 0.0827 c 0,0.50851 0.25218,0.50851 0.54984,0.50851 z m 0,0"
         style="fill:none;fill-opacity:1;fill-rule:nonzero;stroke:#cbfa9d;stroke-width:0.253;stroke-dasharray:none;stroke-opacity:0.357513"
         aria-label="T" /><path
         id="path3-9-5-8-3-1"
         d="m 161.02146,147.03779 c 0,-0.0827 -0.0744,-0.12403 -0.11576,-0.12403 -0.25218,0 -0.5581,0.68212 -2.04639,0.68212 -1.85621,0 -2.38125,-1.13686 -2.38125,-2.71611 0,-1.57096 0.57051,-2.71198 2.29857,-2.71198 0.93845,0 1.43454,0.36793 1.71979,0.6036 0.062,0.0496 0.0909,0.0951 0.16537,0.0951 0.0455,0 0.0951,-0.0537 0.10749,-0.0951 l 0.21084,-1.16997 c 0.008,-0.0455 0,-0.0868 -0.0868,-0.11988 -0.62012,-0.23151 -1.26504,-0.37621 -2.0836,-0.37621 -2.57555,0 -3.8902,1.25264 -3.8902,3.76203 0,2.58384 1.33532,3.78685 3.89847,3.78685 0.89711,0 1.45521,-0.12814 2.22416,-0.60357 0.0868,-0.0537 0.062,-0.12403 0.062,-0.12403 z m 0,0"
         style="fill:none;fill-opacity:1;fill-rule:nonzero;stroke:#9cfbf2;stroke-width:0.253;stroke-dasharray:none;stroke-opacity:1"
         aria-label="C" /></g></g><style
     id="style1"><![CDATA[.B{fill:#006577}.C{opacity:.4}.D{fill:#fff}]]></style></svg>
